<svg xmlns="http://www.w3.org/2000/svg" viewBox="0 0 360 160" fill="none" role="img" aria-labelledby="title">
  <title id="title">Conservatory branch line drawing</title>
  <path d="M24 128c74-5 135-27 183-66 36-29 76-40 129-35" stroke="currentColor" stroke-width="4" stroke-linecap="round"/>
  <path d="M97 107c-22-3-38-14-49-35 24-1 41 11 49 35ZM151 84c-6-25 1-46 20-63 8 25 1 46-20 63ZM211 61c20-17 42-22 67-14-18 18-41 23-67 14ZM260 43c4-21 17-36 38-45 1 23-12 38-38 45ZM72 116c-18 10-35 10-52 1 18-11 35-11 52-1Z" stroke="currentColor" stroke-width="3" stroke-linejoin="round"/>
</svg>
